<svg xmlns="http://www.w3.org/2000/svg" xmlns:xlink="http://www.w3.org/1999/xlink" contentStyleType="text/css" height="1440px" preserveAspectRatio="none" style="width:2044px;height:1440px;background:#FFFFFF;" version="1.1" viewBox="0 0 2044 1440" width="2044px" zoomAndPan="magnify"><defs/><g><!--cluster com.example.diary--><g id="cluster_com.example.diary"><rect fill="none" height="1427" rx="2.5" ry="2.5" style="stroke:#181818;stroke-width:1.0;" width="1962" x="7" y="7"/><text fill="#000000" font-family="sans-serif" font-size="14" font-weight="bold" lengthAdjust="spacing" textLength="126.0615" x="924.9692" y="24.1074">com.example.diary</text></g><!--cluster ui--><g id="cluster_ui"><rect fill="none" height="909" rx="2.5" ry="2.5" style="stroke:#181818;stroke-width:1.0;" width="1475" x="31" y="52"/><text fill="#000000" font-family="sans-serif" font-size="14" font-weight="bold" lengthAdjust="spacing" textLength="12.4414" x="762.2793" y="69.1074">ui</text></g><!--cluster activities--><g id="cluster_activities"><rect fill="none" height="281" rx="2.5" ry="2.5" style="stroke:#181818;stroke-width:1.0;" width="535" x="63" y="490"/><text fill="#000000" font-family="sans-serif" font-size="14" font-weight="bold" lengthAdjust="spacing" textLength="59.9238" x="300.5381" y="507.1074">activities</text></g><!--cluster dialogs--><g id="cluster_dialogs"><rect fill="none" height="276" rx="2.5" ry="2.5" style="stroke:#181818;stroke-width:1.0;" width="408" x="638" y="653"/><text fill="#000000" font-family="sans-serif" font-size="14" font-weight="bold" lengthAdjust="spacing" textLength="49.0068" x="817.4966" y="670.1074">dialogs</text></g><!--cluster adapters--><g id="cluster_adapters"><rect fill="none" height="118" rx="2.5" ry="2.5" style="stroke:#181818;stroke-width:1.0;" width="388" x="1086" y="653"/><text fill="#000000" font-family="sans-serif" font-size="14" font-weight="bold" lengthAdjust="spacing" textLength="58.3584" x="1250.8208" y="670.1074">adapters</text></g><!--cluster widgets--><g id="cluster_widgets"><rect fill="none" height="236" rx="2.5" ry="2.5" style="stroke:#181818;stroke-width:1.0;" width="337" x="63" y="105"/><text fill="#000000" font-family="sans-serif" font-size="14" font-weight="bold" lengthAdjust="spacing" textLength="52.1172" x="205.4414" y="122.1074">widgets</text></g><!--cluster data--><g id="cluster_data"><rect fill="none" height="543" rx="2.5" ry="2.5" style="stroke:#181818;stroke-width:1.0;" width="402" x="1530" y="600"/><text fill="#000000" font-family="sans-serif" font-size="14" font-weight="bold" lengthAdjust="spacing" textLength="28.7861" x="1716.6069" y="617.1074">data</text></g><!--cluster database--><g id="cluster_database"><rect fill="none" height="118" rx="2.5" ry="2.5" style="stroke:#181818;stroke-width:1.0;" width="328" x="1562" y="811"/><text fill="#000000" font-family="sans-serif" font-size="14" font-weight="bold" lengthAdjust="spacing" textLength="60.6963" x="1695.6519" y="828.1074">database</text></g><!--cluster models--><g id="cluster_models"><rect fill="none" height="118" rx="2.5" ry="2.5" style="stroke:#181818;stroke-width:1.0;" width="248" x="1607" y="993"/><text fill="#000000" font-family="sans-serif" font-size="14" font-weight="bold" lengthAdjust="spacing" textLength="49.0137" x="1706.4932" y="1010.1074">models</text></g><!--cluster repository--><g id="cluster_repository"><rect fill="none" height="118" rx="2.5" ry="2.5" style="stroke:#181818;stroke-width:1.0;" width="203" x="1562" y="653"/><text fill="#000000" font-family="sans-serif" font-size="14" font-weight="bold" lengthAdjust="spacing" textLength="68.4619" x="1629.269" y="670.1074">repository</text></g><!--cluster utils--><g id="cluster_utils"><rect fill="none" height="227" rx="2.5" ry="2.5" style="stroke:#181818;stroke-width:1.0;" width="328" x="1538" y="223"/><text fill="#000000" font-family="sans-serif" font-size="14" font-weight="bold" lengthAdjust="spacing" textLength="28.7793" x="1687.6104" y="240.1074">utils</text></g><!--cluster databinding--><g id="cluster_databinding"><rect fill="none" height="227" rx="2.5" ry="2.5" style="stroke:#181818;stroke-width:1.0;" width="374" x="638" y="1175"/><text fill="#000000" font-family="sans-serif" font-size="14" font-weight="bold" lengthAdjust="spacing" textLength="79.3242" x="785.3379" y="1192.1074">databinding</text></g><!--entity MainActivity--><g id="elem_MainActivity"><rect fill="#F1F1F1" height="48.6211" rx="2.5" ry="2.5" style="stroke:#181818;stroke-width:0.5;" width="114.6826" x="87.5" y="535"/><rect fill="#F1F1F1" height="10" style="stroke:#181818;stroke-width:0.5;" width="15" x="182.1826" y="540"/><rect fill="#F1F1F1" height="2" style="stroke:#181818;stroke-width:0.5;" width="4" x="180.1826" y="542"/><rect fill="#F1F1F1" height="2" style="stroke:#181818;stroke-width:0.5;" width="4" x="180.1826" y="546"/><text fill="#000000" font-family="sans-serif" font-size="14" lengthAdjust="spacing" textLength="74.6826" x="102.5" y="570.1074">MainActivity</text></g><!--entity EditNoteActivity--><g id="elem_EditNoteActivity"><rect fill="#F1F1F1" height="48.6211" rx="2.5" ry="2.5" style="stroke:#181818;stroke-width:0.5;" width="138.0342" x="238" y="535"/><rect fill="#F1F1F1" height="10" style="stroke:#181818;stroke-width:0.5;" width="15" x="356.0342" y="540"/><rect fill="#F1F1F1" height="2" style="stroke:#181818;stroke-width:0.5;" width="4" x="354.0342" y="542"/><rect fill="#F1F1F1" height="2" style="stroke:#181818;stroke-width:0.5;" width="4" x="354.0342" y="546"/><text fill="#000000" font-family="sans-serif" font-size="14" lengthAdjust="spacing" textLength="98.0342" x="253" y="570.1074">EditNoteActivity</text></g><!--entity ViewNoteActivity--><g id="elem_ViewNoteActivity"><rect fill="#F1F1F1" height="48.6211" rx="2.5" ry="2.5" style="stroke:#181818;stroke-width:0.5;" width="144.2549" x="411" y="535"/><rect fill="#F1F1F1" height="10" style="stroke:#181818;stroke-width:0.5;" width="15" x="535.2549" y="540"/><rect fill="#F1F1F1" height="2" style="stroke:#181818;stroke-width:0.5;" width="4" x="533.2549" y="542"/><rect fill="#F1F1F1" height="2" style="stroke:#181818;stroke-width:0.5;" width="4" x="533.2549" y="546"/><text fill="#000000" font-family="sans-serif" font-size="14" lengthAdjust="spacing" textLength="104.2549" x="426" y="570.1074">ViewNoteActivity</text></g><!--entity SearchActivity--><g id="elem_SearchActivity"><rect fill="#F1F1F1" height="48.6211" rx="2.5" ry="2.5" style="stroke:#181818;stroke-width:0.5;" width="128.6963" x="93.5" y="698"/><rect fill="#F1F1F1" height="10" style="stroke:#181818;stroke-width:0.5;" width="15" x="202.1963" y="703"/><rect fill="#F1F1F1" height="2" style="stroke:#181818;stroke-width:0.5;" width="4" x="200.1963" y="705"/><rect fill="#F1F1F1" height="2" style="stroke:#181818;stroke-width:0.5;" width="4" x="200.1963" y="709"/><text fill="#000000" font-family="sans-serif" font-size="14" lengthAdjust="spacing" textLength="88.6963" x="108.5" y="733.1074">SearchActivity</text></g><!--entity SettingsActivity--><g id="elem_SettingsActivity"><rect fill="#F1F1F1" height="48.6211" rx="2.5" ry="2.5" style="stroke:#181818;stroke-width:0.5;" width="134.9238" x="257.5" y="698"/><rect fill="#F1F1F1" height="10" style="stroke:#181818;stroke-width:0.5;" width="15" x="372.4238" y="703"/><rect fill="#F1F1F1" height="2" style="stroke:#181818;stroke-width:0.5;" width="4" x="370.4238" y="705"/><rect fill="#F1F1F1" height="2" style="stroke:#181818;stroke-width:0.5;" width="4" x="370.4238" y="709"/><text fill="#000000" font-family="sans-serif" font-size="14" lengthAdjust="spacing" textLength="94.9238" x="272.5" y="733.1074">SettingsActivity</text></g><!--entity ColorPickerDialog--><g id="elem_ColorPickerDialog"><rect fill="#F1F1F1" height="48.6211" rx="2.5" ry="2.5" style="stroke:#181818;stroke-width:0.5;" width="152.041" x="681" y="698"/><rect fill="#F1F1F1" height="10" style="stroke:#181818;stroke-width:0.5;" width="15" x="813.041" y="703"/><rect fill="#F1F1F1" height="2" style="stroke:#181818;stroke-width:0.5;" width="4" x="811.041" y="705"/><rect fill="#F1F1F1" height="2" style="stroke:#181818;stroke-width:0.5;" width="4" x="811.041" y="709"/><text fill="#000000" font-family="sans-serif" font-size="14" lengthAdjust="spacing" textLength="112.041" x="696" y="733.1074">ColorPickerDialog</text></g><!--entity MoodPickerDialog--><g id="elem_MoodPickerDialog"><rect fill="#F1F1F1" height="48.6211" rx="2.5" ry="2.5" style="stroke:#181818;stroke-width:0.5;" width="153.6064" x="868" y="698"/><rect fill="#F1F1F1" height="10" style="stroke:#181818;stroke-width:0.5;" width="15" x="1001.6064" y="703"/><rect fill="#F1F1F1" height="2" style="stroke:#181818;stroke-width:0.5;" width="4" x="999.6064" y="705"/><rect fill="#F1F1F1" height="2" style="stroke:#181818;stroke-width:0.5;" width="4" x="999.6064" y="709"/><text fill="#000000" font-family="sans-serif" font-size="14" lengthAdjust="spacing" textLength="113.6064" x="883" y="733.1074">MoodPickerDialog</text></g><!--entity PasswordDialog--><g id="elem_PasswordDialog"><rect fill="#F1F1F1" height="48.6211" rx="2.5" ry="2.5" style="stroke:#181818;stroke-width:0.5;" width="141.1582" x="686.5" y="856"/><rect fill="#F1F1F1" height="10" style="stroke:#181818;stroke-width:0.5;" width="15" x="807.6582" y="861"/><rect fill="#F1F1F1" height="2" style="stroke:#181818;stroke-width:0.5;" width="4" x="805.6582" y="863"/><rect fill="#F1F1F1" height="2" style="stroke:#181818;stroke-width:0.5;" width="4" x="805.6582" y="867"/><text fill="#000000" font-family="sans-serif" font-size="14" lengthAdjust="spacing" textLength="101.1582" x="701.5" y="891.1074">PasswordDialog</text></g><!--entity NoteListAdapter--><g id="elem_NoteListAdapter"><rect fill="#F1F1F1" height="48.6211" rx="2.5" ry="2.5" style="stroke:#181818;stroke-width:0.5;" width="140.3926" x="1310" y="698"/><rect fill="#F1F1F1" height="10" style="stroke:#181818;stroke-width:0.5;" width="15" x="1430.3926" y="703"/><rect fill="#F1F1F1" height="2" style="stroke:#181818;stroke-width:0.5;" width="4" x="1428.3926" y="705"/><rect fill="#F1F1F1" height="2" style="stroke:#181818;stroke-width:0.5;" width="4" x="1428.3926" y="709"/><text fill="#000000" font-family="sans-serif" font-size="14" lengthAdjust="spacing" textLength="100.3926" x="1325" y="733.1074">NoteListAdapter</text></g><!--entity NoteGridAdapter--><g id="elem_NoteGridAdapter"><rect fill="#F1F1F1" height="48.6211" rx="2.5" ry="2.5" style="stroke:#181818;stroke-width:0.5;" width="145.0547" x="1129.5" y="698"/><rect fill="#F1F1F1" height="10" style="stroke:#181818;stroke-width:0.5;" width="15" x="1254.5547" y="703"/><rect fill="#F1F1F1" height="2" style="stroke:#181818;stroke-width:0.5;" width="4" x="1252.5547" y="705"/><rect fill="#F1F1F1" height="2" style="stroke:#181818;stroke-width:0.5;" width="4" x="1252.5547" y="709"/><text fill="#000000" font-family="sans-serif" font-size="14" lengthAdjust="spacing" textLength="105.0547" x="1144.5" y="733.1074">NoteGridAdapter</text></g><!--entity RichEditText--><g id="elem_RichEditText"><rect fill="#F1F1F1" height="48.6211" rx="2.5" ry="2.5" style="stroke:#181818;stroke-width:0.5;" width="119.3584" x="87.5" y="150"/><rect fill="#F1F1F1" height="10" style="stroke:#181818;stroke-width:0.5;" width="15" x="186.8584" y="155"/><rect fill="#F1F1F1" height="2" style="stroke:#181818;stroke-width:0.5;" width="4" x="184.8584" y="157"/><rect fill="#F1F1F1" height="2" style="stroke:#181818;stroke-width:0.5;" width="4" x="184.8584" y="161"/><text fill="#000000" font-family="sans-serif" font-size="14" lengthAdjust="spacing" textLength="79.3584" x="102.5" y="185.1074">RichEditText</text></g><!--entity AudioPlayer--><g id="elem_AudioPlayer"><rect fill="#F1F1F1" height="48.6211" rx="2.5" ry="2.5" style="stroke:#181818;stroke-width:0.5;" width="115.4893" x="241.5" y="150"/><rect fill="#F1F1F1" height="10" style="stroke:#181818;stroke-width:0.5;" width="15" x="336.9893" y="155"/><rect fill="#F1F1F1" height="2" style="stroke:#181818;stroke-width:0.5;" width="4" x="334.9893" y="157"/><rect fill="#F1F1F1" height="2" style="stroke:#181818;stroke-width:0.5;" width="4" x="334.9893" y="161"/><text fill="#000000" font-family="sans-serif" font-size="14" lengthAdjust="spacing" textLength="75.4893" x="256.5" y="185.1074">AudioPlayer</text></g><!--entity FormatToolbar--><g id="elem_FormatToolbar"><rect fill="#F1F1F1" height="48.6211" rx="2.5" ry="2.5" style="stroke:#181818;stroke-width:0.5;" width="131.8066" x="87" y="268"/><rect fill="#F1F1F1" height="10" style="stroke:#181818;stroke-width:0.5;" width="15" x="198.8066" y="273"/><rect fill="#F1F1F1" height="2" style="stroke:#181818;stroke-width:0.5;" width="4" x="196.8066" y="275"/><rect fill="#F1F1F1" height="2" style="stroke:#181818;stroke-width:0.5;" width="4" x="196.8066" y="279"/><text fill="#000000" font-family="sans-serif" font-size="14" lengthAdjust="spacing" textLength="91.8066" x="102" y="303.1074">FormatToolbar</text></g><!--entity NoteDatabase--><g id="elem_NoteDatabase"><rect fill="#F1F1F1" height="48.6211" rx="2.5" ry="2.5" style="stroke:#181818;stroke-width:0.5;" width="129.5029" x="1736" y="856"/><rect fill="#F1F1F1" height="10" style="stroke:#181818;stroke-width:0.5;" width="15" x="1845.5029" y="861"/><rect fill="#F1F1F1" height="2" style="stroke:#181818;stroke-width:0.5;" width="4" x="1843.5029" y="863"/><rect fill="#F1F1F1" height="2" style="stroke:#181818;stroke-width:0.5;" width="4" x="1843.5029" y="867"/><text fill="#000000" font-family="sans-serif" font-size="14" lengthAdjust="spacing" textLength="89.5029" x="1751" y="891.1074">NoteDatabase</text></g><!--entity NoteDao--><g id="elem_NoteDao"><rect fill="#F1F1F1" height="48.6211" rx="2.5" ry="2.5" style="stroke:#181818;stroke-width:0.5;" width="95.2549" x="1605.5" y="856"/><rect fill="#F1F1F1" height="10" style="stroke:#181818;stroke-width:0.5;" width="15" x="1680.7549" y="861"/><rect fill="#F1F1F1" height="2" style="stroke:#181818;stroke-width:0.5;" width="4" x="1678.7549" y="863"/><rect fill="#F1F1F1" height="2" style="stroke:#181818;stroke-width:0.5;" width="4" x="1678.7549" y="867"/><text fill="#000000" font-family="sans-serif" font-size="14" lengthAdjust="spacing" textLength="55.2549" x="1620.5" y="891.1074">NoteDao</text></g><!--entity Note--><g id="elem_Note"><rect fill="#F1F1F1" height="48.6211" rx="2.5" ry="2.5" style="stroke:#181818;stroke-width:0.5;" width="69.5723" x="1761" y="1038"/><rect fill="#F1F1F1" height="10" style="stroke:#181818;stroke-width:0.5;" width="15" x="1810.5723" y="1043"/><rect fill="#F1F1F1" height="2" style="stroke:#181818;stroke-width:0.5;" width="4" x="1808.5723" y="1045"/><rect fill="#F1F1F1" height="2" style="stroke:#181818;stroke-width:0.5;" width="4" x="1808.5723" y="1049"/><text fill="#000000" font-family="sans-serif" font-size="14" lengthAdjust="spacing" textLength="29.5723" x="1776" y="1073.1074">Note</text></g><!--entity Mood--><g id="elem_Mood"><rect fill="#F1F1F1" height="48.6211" rx="2.5" ry="2.5" style="stroke:#181818;stroke-width:0.5;" width="75.0205" x="1650.5" y="1038"/><rect fill="#F1F1F1" height="10" style="stroke:#181818;stroke-width:0.5;" width="15" x="1705.5205" y="1043"/><rect fill="#F1F1F1" height="2" style="stroke:#181818;stroke-width:0.5;" width="4" x="1703.5205" y="1045"/><rect fill="#F1F1F1" height="2" style="stroke:#181818;stroke-width:0.5;" width="4" x="1703.5205" y="1049"/><text fill="#000000" font-family="sans-serif" font-size="14" lengthAdjust="spacing" textLength="35.0205" x="1665.5" y="1073.1074">Mood</text></g><!--entity NoteRepository--><g id="elem_NoteRepository"><rect fill="#F1F1F1" height="48.6211" rx="2.5" ry="2.5" style="stroke:#181818;stroke-width:0.5;" width="136.4893" x="1605" y="698"/><rect fill="#F1F1F1" height="10" style="stroke:#181818;stroke-width:0.5;" width="15" x="1721.4893" y="703"/><rect fill="#F1F1F1" height="2" style="stroke:#181818;stroke-width:0.5;" width="4" x="1719.4893" y="705"/><rect fill="#F1F1F1" height="2" style="stroke:#181818;stroke-width:0.5;" width="4" x="1719.4893" y="709"/><text fill="#000000" font-family="sans-serif" font-size="14" lengthAdjust="spacing" textLength="96.4893" x="1620" y="733.1074">NoteRepository</text></g><!--entity TextFormatter--><g id="elem_TextFormatter"><rect fill="#F1F1F1" height="48.6211" rx="2.5" ry="2.5" style="stroke:#181818;stroke-width:0.5;" width="127.9033" x="1581" y="268"/><rect fill="#F1F1F1" height="10" style="stroke:#181818;stroke-width:0.5;" width="15" x="1688.9033" y="273"/><rect fill="#F1F1F1" height="2" style="stroke:#181818;stroke-width:0.5;" width="4" x="1686.9033" y="275"/><rect fill="#F1F1F1" height="2" style="stroke:#181818;stroke-width:0.5;" width="4" x="1686.9033" y="279"/><text fill="#000000" font-family="sans-serif" font-size="14" lengthAdjust="spacing" textLength="87.9033" x="1596" y="303.1074">TextFormatter</text></g><!--entity TimeUtils--><g id="elem_TimeUtils"><rect fill="#F1F1F1" height="48.6211" rx="2.5" ry="2.5" style="stroke:#181818;stroke-width:0.5;" width="98.3311" x="1744" y="268"/><rect fill="#F1F1F1" height="10" style="stroke:#181818;stroke-width:0.5;" width="15" x="1822.3311" y="273"/><rect fill="#F1F1F1" height="2" style="stroke:#181818;stroke-width:0.5;" width="4" x="1820.3311" y="275"/><rect fill="#F1F1F1" height="2" style="stroke:#181818;stroke-width:0.5;" width="4" x="1820.3311" y="279"/><text fill="#000000" font-family="sans-serif" font-size="14" lengthAdjust="spacing" textLength="58.3311" x="1759" y="303.1074">TimeUtils</text></g><!--entity SecurityUtils--><g id="elem_SecurityUtils"><rect fill="#F1F1F1" height="48.6211" rx="2.5" ry="2.5" style="stroke:#181818;stroke-width:0.5;" width="117.793" x="1586" y="377"/><rect fill="#F1F1F1" height="10" style="stroke:#181818;stroke-width:0.5;" width="15" x="1683.793" y="382"/><rect fill="#F1F1F1" height="2" style="stroke:#181818;stroke-width:0.5;" width="4" x="1681.793" y="384"/><rect fill="#F1F1F1" height="2" style="stroke:#181818;stroke-width:0.5;" width="4" x="1681.793" y="388"/><text fill="#000000" font-family="sans-serif" font-size="14" lengthAdjust="spacing" textLength="77.793" x="1601" y="412.1074">SecurityUtils</text></g><!--entity ActivityBindings--><g id="elem_ActivityBindings"><rect fill="#F1F1F1" height="48.6211" rx="2.5" ry="2.5" style="stroke:#181818;stroke-width:0.5;" width="138.041" x="681" y="1220"/><rect fill="#F1F1F1" height="10" style="stroke:#181818;stroke-width:0.5;" width="15" x="799.041" y="1225"/><rect fill="#F1F1F1" height="2" style="stroke:#181818;stroke-width:0.5;" width="4" x="797.041" y="1227"/><rect fill="#F1F1F1" height="2" style="stroke:#181818;stroke-width:0.5;" width="4" x="797.041" y="1231"/><text fill="#000000" font-family="sans-serif" font-size="14" lengthAdjust="spacing" textLength="98.041" x="696" y="1255.1074">ActivityBindings</text></g><!--entity DialogBindings--><g id="elem_DialogBindings"><rect fill="#F1F1F1" height="48.6211" rx="2.5" ry="2.5" style="stroke:#181818;stroke-width:0.5;" width="133.3926" x="854.5" y="1220"/><rect fill="#F1F1F1" height="10" style="stroke:#181818;stroke-width:0.5;" width="15" x="967.8926" y="1225"/><rect fill="#F1F1F1" height="2" style="stroke:#181818;stroke-width:0.5;" width="4" x="965.8926" y="1227"/><rect fill="#F1F1F1" height="2" style="stroke:#181818;stroke-width:0.5;" width="4" x="965.8926" y="1231"/><text fill="#000000" font-family="sans-serif" font-size="14" lengthAdjust="spacing" textLength="93.3926" x="869.5" y="1255.1074">DialogBindings</text></g><!--entity LayoutBindings--><g id="elem_LayoutBindings"><rect fill="#F1F1F1" height="48.6211" rx="2.5" ry="2.5" style="stroke:#181818;stroke-width:0.5;" width="135.7373" x="682" y="1329"/><rect fill="#F1F1F1" height="10" style="stroke:#181818;stroke-width:0.5;" width="15" x="797.7373" y="1334"/><rect fill="#F1F1F1" height="2" style="stroke:#181818;stroke-width:0.5;" width="4" x="795.7373" y="1336"/><rect fill="#F1F1F1" height="2" style="stroke:#181818;stroke-width:0.5;" width="4" x="795.7373" y="1340"/><text fill="#000000" font-family="sans-serif" font-size="14" lengthAdjust="spacing" textLength="95.7373" x="697" y="1364.1074">LayoutBindings</text></g><!--link activities to models--><g id="link_activities_models"><path d="M598.2395,560.5183 C599.9006,560.5223 601.8039,560.5272 603.9412,560.5328 C612.4908,560.5556 624.7856,560.5922 640.3044,560.6489 C671.3418,560.7623 715.2749,560.9562 767.9323,561.2805 C873.2472,561.9291 1013.4594,563.0994 1155.1987,565.1913 C1438.6775,569.375 1728.265,577.245 1757,592 C1918.01,674.68 2037.12,839.18 1911,969 C1889.54,991.08 1657.76,957.42 1634,977 C1630.345,980.0125 1627.3019,983.563 1624.7754,987.4734 C1624.1437,988.451 1623.5444,989.4511 1622.9759,990.471 C1622.6916,990.9809 1622.415,991.4957 1622.146,992.0152 C1622.0115,992.2749 1624.559,987.1676 1624.4282,987.4296 " fill="none" id="activities-to-models" style="stroke:#181818;stroke-width:1.0;stroke-dasharray:7.0,7.0;"/><polygon fill="#181818" points="1621.748,992.7977,1629.3471,986.5324,1623.9815,988.3243,1622.1896,982.9587,1621.748,992.7977" style="stroke:#181818;stroke-width:1.0;"/></g><!--link activities to repository--><g id="link_activities_repository"><path d="M598.1376,560.5969 C598.4918,560.6013 598.8572,560.6058 599.2335,560.6105 C599.9862,560.6199 600.7829,560.6299 601.6227,560.6404 C608.3417,560.7248 617.8265,560.8471 629.6906,561.0078 C653.4187,561.3291 686.6636,561.8042 726.3322,562.4378 C805.6694,563.705 910.7013,565.6063 1016.6825,568.18 C1228.645,573.3275 1444.405,581.165 1466,592 C1498.475,608.295 1524.175,639.92 1541.9025,667.8375 C1546.3344,674.8169 1550.268,681.5645 1553.6846,687.783 C1555.3929,690.8922 1556.9719,693.8692 1558.4194,696.6767 C1559.1431,698.0804 1559.834,699.4418 1560.4916,700.7561 C1560.8204,701.4133 1561.141,702.0587 1561.4531,702.6918 C1561.6092,703.0083 1559.1249,697.933 1559.2768,698.2433 " fill="none" id="activities-to-repository" style="stroke:#181818;stroke-width:1.0;stroke-dasharray:7.0,7.0;"/><polygon fill="#181818" points="1561.9152,703.6321,1561.5502,693.79,1559.7165,699.1414,1554.3651,697.3078,1561.9152,703.6321" style="stroke:#181818;stroke-width:1.0;"/></g><!--reverse link widgets to activities--><g id="link_widgets_activities"><path d="M403.9707,191.2211 C404.2356,191.573 401.2879,187.6633 401.5636,188.0303 C402.6665,189.4982 403.8545,191.086 405.1224,192.7889 C407.6583,196.1948 410.5135,200.0609 413.6448,204.3487 C426.1703,221.5 443.1144,245.3975 461.7112,273.565 C498.905,329.9 542.71,403.315 571,474 C572.7325,478.3275 574.3241,482.8461 575.7834,487.446 C575.9658,488.021 576.1462,488.5973 576.3245,489.1746 C576.3691,489.3189 576.4135,489.4633 576.4578,489.6078 " fill="none" id="widgets-backto-activities" style="stroke:#181818;stroke-width:1.0;stroke-dasharray:7.0,7.0;"/><polygon fill="#181818" points="400.3592,186.4297,402.5822,196.0244,403.3688,190.4225,408.9707,191.2091,400.3592,186.4297" style="stroke:#181818;stroke-width:1.0;"/></g><!--link activities to dialogs--><g id="link_activities_dialogs"><path d="M598.0643,583.6874 C598.1414,583.9091 598.2189,584.1319 598.2968,584.356 C598.6085,585.2521 598.9269,586.1672 599.2514,587.1002 C604.4441,602.0278 611.2281,621.5306 618.0113,641.0313 C624.7944,660.5319 631.5766,680.0303 636.7655,694.9492 C637.0898,695.8817 637.4079,696.7962 637.7193,697.6917 C637.7972,697.9156 635.9036,692.4713 635.9807,692.6928 " fill="none" id="activities-to-dialogs" style="stroke:#181818;stroke-width:1.0;stroke-dasharray:7.0,7.0;"/><polygon fill="#181818" points="637.9517,698.3598,638.7732,688.5453,636.3092,693.6373,631.2172,691.1733,637.9517,698.3598" style="stroke:#181818;stroke-width:1.0;"/></g><!--link activities to adapters--><g id="link_activities_adapters"><path d="M598.4116,560.5716 C599.4018,560.5813 600.474,560.592 601.6254,560.604 C603.9281,560.628 606.5474,560.6568 609.4601,560.6911 C621.1111,560.8285 637.4574,561.0545 657.023,561.4141 C696.1541,562.1331 748.1619,563.3863 801.2363,565.5325 C907.385,569.825 1017.8,577.69 1038,592 C1063.185,609.845 1077.145,641.495 1084.8288,669.0375 C1085.0689,669.8982 1085.3029,670.7549 1085.5309,671.607 C1085.6449,672.0331 1084.2364,666.654 1084.3475,667.0777 " fill="none" id="activities-to-adapters" style="stroke:#181818;stroke-width:1.0;stroke-dasharray:7.0,7.0;"/><polygon fill="#181818" points="1085.8684,672.8817,1087.4564,663.1617,1084.601,668.0451,1079.7177,665.1897,1085.8684,672.8817" style="stroke:#181818;stroke-width:1.0;"/></g><!--link adapters to models--><g id="link_adapters_models"><path d="M1103.7495,771.2433 C1103.8394,771.453 1103.9302,771.6623 1104.0218,771.8712 C1104.2051,772.2891 1104.3916,772.7055 1104.5816,773.1204 C1105.3416,774.7796 1106.1562,776.4128 1107.0292,778.007 C1108.7752,781.1953 1110.755,784.2275 1113,787 C1192.38,885.045 1316.5475,953.3675 1421.5288,997.3288 C1474.0194,1019.3094 1521.7134,1035.1997 1556.6142,1045.6698 C1574.0646,1050.9049 1588.3167,1054.785 1598.3708,1057.3937 C1600.8844,1058.0459 1603.1356,1058.6187 1605.1087,1059.1133 C1605.602,1059.2369 1600.2551,1057.9085 1600.7134,1058.0224 " fill="none" id="adapters-to-models" style="stroke:#181818;stroke-width:1.0;stroke-dasharray:7.0,7.0;"/><polygon fill="#181818" points="1606.5363,1059.4696,1598.7667,1053.4169,1601.6839,1058.2636,1596.8372,1061.1808,1606.5363,1059.4696" style="stroke:#181818;stroke-width:1.0;"/></g><!--link adapters to databinding--><g id="link_adapters_databinding"><path d="M1094.6545,771.6215 C1094.6444,771.9383 1094.6341,772.2562 1094.6234,772.5752 C1094.5382,775.1276 1094.4335,777.753 1094.3065,780.4448 C1093.7987,791.2121 1092.9347,803.0422 1091.5388,815.5138 C1085.955,865.4 1071.86,925.55 1038,969 C923.64,1115.75 779.13,1012.07 665,1159 C662.14,1162.6813 659.6941,1166.71 657.6038,1170.9481 C657.0813,1172.0076 656.581,1173.0802 656.102,1174.1638 C655.9822,1174.4347 658.2348,1169.1946 658.1177,1169.4668 " fill="none" id="adapters-to-databinding" style="stroke:#181818;stroke-width:1.0;stroke-dasharray:7.0,7.0;"/><polygon fill="#181818" points="655.7467,1174.9784,662.9776,1168.2916,657.7225,1170.3854,655.6287,1165.1303,655.7467,1174.9784" style="stroke:#181818;stroke-width:1.0;"/></g><!--link repository to database--><g id="link_repository_database"><path d="M1570,771.2491 C1570,771.5237 1570,771.7988 1570,772.0745 C1570,772.626 1570,773.1797 1570,773.7356 C1570,782.6301 1570,792.0784 1570,801.5262 C1570,803.8882 1570,806.2501 1570,808.6033 C1570,809.1916 1570,809.7794 1570,810.3665 C1570,810.5133 1570,804.66 1570,804.8067 " fill="none" id="repository-to-database" style="stroke:#181818;stroke-width:1.0;stroke-dasharray:7.0,7.0;"/><polygon fill="#181818" points="1570,810.8067,1574,801.8067,1570,805.8067,1566,801.8067,1570,810.8067" style="stroke:#181818;stroke-width:1.0;"/></g><!--link repository to models--><g id="link_repository_models"><path d="M1576.8508,771.0735 C1576.8973,771.1749 1576.944,771.2761 1576.9911,771.3771 C1577.1792,771.7813 1577.3721,772.183 1577.5698,772.5819 C1577.9651,773.3796 1578.3797,774.1662 1578.8143,774.9397 C1579.6835,776.4866 1580.6332,777.9808 1581.6703,779.4061 C1583.7445,782.2566 1586.1688,784.8313 1589,787 C1601.93,796.9 1870.64,783.33 1882,795 C1935.93,850.42 1935.79,913.44 1882,969 C1862.82,988.81 1655.25,959.43 1634,977 C1630.35,980.0188 1627.3106,983.5739 1624.7869,987.4878 C1624.1559,988.4662 1623.5572,989.4671 1622.9892,990.4877 C1622.7052,990.9979 1622.4289,991.5131 1622.1601,992.0328 C1622.0257,992.2927 1624.5703,987.1841 1624.4396,987.4462 " fill="none" id="repository-to-models" style="stroke:#181818;stroke-width:1.0;stroke-dasharray:7.0,7.0;"/><polygon fill="#181818" points="1621.7625,992.8158,1629.3579,986.546,1623.9934,988.3411,1622.1984,982.9766,1621.7625,992.8158" style="stroke:#181818;stroke-width:1.0;"/></g><!--link database to models--><g id="link_database_models"><path d="M1579.8119,929.1908 C1580.0675,930.3683 1580.3262,931.5544 1580.5876,932.7475 C1581.1104,935.1336 1581.6443,937.5478 1582.187,939.9769 C1584.3581,949.6931 1586.6725,959.6475 1589,969 C1593.995,989.075 1600.25,1011.405 1605.3725,1029.095 C1605.6927,1030.2006 1606.0084,1031.2881 1606.3191,1032.3558 C1606.4745,1032.8897 1606.6286,1033.4186 1606.7814,1033.9423 C1606.8196,1034.0732 1605.1765,1028.4442 1605.2145,1028.5745 " fill="none" id="database-to-models" style="stroke:#181818;stroke-width:1.0;stroke-dasharray:7.0,7.0;"/><polygon fill="#181818" points="1606.8957,1034.3341,1608.2136,1024.5738,1605.4947,1029.5344,1600.5341,1026.8155,1606.8957,1034.3341" style="stroke:#181818;stroke-width:1.0;"/></g><!--link dialogs to databinding--><g id="link_dialogs_databinding"><path d="M646,929.8764 C646,931.8378 646,933.8034 646,935.7728 C646,951.528 646,967.5253 646,983.5225 C646,1047.5113 646,1111.4981 646,1159.9803 C646,1163.0104 646,1165.98 646,1168.8852 C646,1170.3379 646,1171.7744 646,1173.1943 C646,1173.5493 646,1167.9033 646,1168.2562 " fill="none" id="dialogs-to-databinding" style="stroke:#181818;stroke-width:1.0;stroke-dasharray:7.0,7.0;"/><polygon fill="#181818" points="646,1174.2562,650,1165.2562,646,1169.2562,642,1165.2562,646,1174.2562" style="stroke:#181818;stroke-width:1.0;"/></g><!--link activities to databinding--><g id="link_activities_databinding"><path d="M62.0006,601.6417 C61.0503,602.7174 60.1164,603.7945 59.1989,604.8731 C55.5287,609.1872 52.1196,613.5238 48.9643,617.8811 C42.6537,626.5957 37.3583,635.3932 33.0194,644.2593 C24.3418,661.9915 19.4907,679.9982 17.9981,698.1657 C15.013,734.5006 25.4619,771.4784 45.6006,808.1886 C85.8781,881.6091 164.915,953.9594 252.7575,1017.9563 C340.6,1081.9531 437.2481,1137.5966 512.7481,1177.6033 C550.4981,1197.6066 582.9611,1213.7008 606.3928,1224.9754 C618.1087,1230.6127 627.5667,1235.0451 634.2989,1238.1588 C635.1405,1238.548 635.9394,1238.9166 636.6948,1239.2644 C637.0725,1239.4383 631.987,1237.1026 632.3429,1237.266 " fill="none" id="activities-to-databinding" style="stroke:#181818;stroke-width:1.0;stroke-dasharray:7.0,7.0;"/><polygon fill="#181818" points="637.7952,1239.7704,631.2863,1232.3789,633.2516,1237.6834,627.9471,1239.6487,637.7952,1239.7704" style="stroke:#181818;stroke-width:1.0;"/></g><!--link widgets to utils--><g id="link_widgets_utils"><path d="M400.501,176.3587 C402.214,176.5308 404.1764,176.728 406.3796,176.9494 C415.1923,177.8349 427.8578,179.1078 443.8256,180.7125 C475.7611,183.9221 520.906,188.4595 574.857,193.8822 C682.7591,204.7275 825.8856,219.1138 969.0113,233.5 C1112.1369,247.8863 1255.2616,262.2725 1363.1598,273.1178 C1417.109,278.5405 1462.2515,283.0779 1494.1843,286.2875 C1510.1507,287.8922 1522.8146,289.1651 1531.6257,290.0506 C1533.8284,290.272 1529.8205,289.8692 1531.533,290.0413 " fill="none" id="widgets-to-utils" style="stroke:#181818;stroke-width:1.0;stroke-dasharray:7.0,7.0;"/><polygon fill="#181818" points="1537.503,290.6413,1528.9481,285.7614,1532.528,290.1413,1528.1481,293.7213,1537.503,290.6413" style="stroke:#181818;stroke-width:1.0;"/></g><!--SRC=[XPJ1Rfj048Rl-nGebvxiHwZaD6alSMJ5JYwM3sDsH4O61Yr37LJbs4DUe8TAUOLSeXwgIdsQHCrZ10mO5jOk9_H_o_op_ywIRYXEm43a9U1l8C2vv25w1ds1E0XHgLhtJdoEndW7KHBYM1EO_CJxfhpYsQ_8g94i6NoXhoI4QHUNpt8A54ygdAziTAv9Bbdm0BuXt1x1SmJZtnw48XG7wH3Vgs7xnLv33eQzV-AGpOpy3PgptPAUovHP7y4pIDCj6zs7hXP0Go9eXZsK2LnGAfDgmMf8lnZI0-hos98EK8OML-JVbcUnm3lfrPzacdWMGZvm_imc0bamXskmV3lkRS0Wu1oS4gmXHUUspsguSY4-ljU8DORkD1s7UBoMmOHJ4cxlWrNlQe__5qCcPFUqB2ElahHERxcW2A_BrHrjZdvcYbdkwAwSrnJhOlGjc-OQd5QiMxKQJWUuW9mpiS6zAXm_UAzFFrz-FxpyVNpxzUFr-_E_vp-g_GDuu_57hug_hxP1McIK9QE2rkFP_wY-d7svkJ1ADM-MyLuRQTx6PVbEDagrdLGUzQJrzRgQQhWjLeqTiB0swEoXtk-kvcuor3i0]--></g></svg>